<?xml version="1.0" encoding="UTF-8"?>
<svg width="884px" height="791px" viewBox="0 0 884 791" version="1.1" xmlns="http://www.w3.org/2000/svg" xmlns:xlink="http://www.w3.org/1999/xlink">
    <!-- Generator: Sketch 52.5 (67469) - http://www.bohemiancoding.com/sketch -->
    <title>undraw_to_do_list_a49b (1)</title>
    <desc>Created with Sketch.</desc>
    <defs>
        <linearGradient x1="50.0191515%" y1="99.9884545%" x2="50.0191515%" y2="-0.00658305107%" id="linearGradient-1">
            <stop stop-color="#808080" stop-opacity="0.25" offset="0%"></stop>
            <stop stop-color="#808080" stop-opacity="0.12" offset="54%"></stop>
            <stop stop-color="#808080" stop-opacity="0.1" offset="100%"></stop>
        </linearGradient>
    </defs>
    <g id="Page-1" stroke="none" stroke-width="1" fill="none" fill-rule="evenodd">
        <g id="Artboard" transform="translate(-467.000000, -388.000000)">
            <g id="undraw_to_do_list_a49b-(1)" transform="translate(467.000000, 388.000000)">
                <path d="M163.7,441.81 C163.7,441.81 174.07,434.38 184.8,438.97 C184.8,438.97 181.8,445.35 168.43,445.27 L163.7,441.81 Z" id="Path" fill="#FFFFFF"></path>
                <path d="M162.41,442.24 C162.41,442.24 159.64,454.69 168.08,462.77 C168.08,462.77 172.76,457.5 167.44,445.24 L162.41,442.24 Z" id="Path" fill="#FFFFFF"></path>
                <path d="M148.7,430.91 C148.7,430.91 149.08,420.4 172.88,422.97 C172.88,422.97 173.25,429.73 165.07,433.25 C156.89,436.77 152.97,434.24 148.7,430.91 Z" id="Path" fill="#FFFFFF"></path>
                <path d="M147.23,430.89 C147.23,430.89 137.34,434.49 147.12,456.35 C147.12,456.35 153.66,454.62 154.49,445.75 C155.32,436.88 151.7,433.95 147.23,430.89 Z" id="Path" fill="#FFFFFF"></path>
                <path d="M133.26,416.54 C133.26,416.54 131.26,399.34 155.5,400.18 C155.5,400.18 157.81,415.73 137.69,420.52 L133.26,416.54 Z" id="Path" fill="#FFFFFF"></path>
                <path d="M116.53,397.68 C116.53,397.68 119.1,378.01 143.53,382.9 C143.53,382.9 144.27,399.8 120.69,402.19 L116.53,397.68 Z" id="Path" fill="#FFFFFF"></path>
                <path d="M104.08,377.99 C104.08,377.99 108.9,358.7 133.08,363.52 C133.08,363.52 128.08,380.87 105.81,381.45 L104.08,377.99 Z" id="Path" fill="#FFFFFF"></path>
                <path d="M92.23,358.76 C92.23,358.76 96.9,338.76 120.23,343.84 C120.23,343.84 113.23,362.91 93.86,362.07 L92.23,358.76 Z" id="Path" fill="#FFFFFF"></path>
                <path d="M84.36,340.36 C84.36,340.36 87.61,316.03 109.36,320.55 C109.36,320.55 103.94,342.78 86.06,343.81 L84.36,340.36 Z" id="Path" fill="#FFFFFF"></path>
                <path d="M76.79,318.05 C76.79,318.05 80.86,293.5 102.94,299.75 C102.94,299.75 95.26,323.1 78.44,321.36 L76.79,318.05 Z" id="Path" fill="#FFFFFF"></path>
                <path d="M71.83,297.24 C71.83,297.24 78.83,272.58 95.75,272.589997 C95.75,272.589997 88.6,298.59 73.43,302.07 L71.83,297.24 Z" id="Path" fill="#FFFFFF"></path>
                <path d="M68.41,276.82 C68.41,276.82 75.94,247.16 89.76,248.9 C89.76,248.9 84.63,271.54 69.07,281.37 L68.41,276.82 Z" id="Path" fill="#FFFFFF"></path>
                <path d="M65.98,252.4 C65.98,252.4 73.15,227.66 86.67,226.16 C86.67,226.16 82.07,250.41 66.52,258.74 L65.98,252.4 Z" id="Path" fill="#FFFFFF"></path>
                <path d="M63.46,229.68 C63.46,229.68 72.64,204.83 81.58,203.93 C81.58,203.93 78.11,228.18 64.51,233.66 L63.46,229.68 Z" id="Path" fill="#FFFFFF"></path>
                <path d="M61.53,208.5 C61.53,208.5 66.73,181.69 75.59,179.15 C75.59,179.15 75.2,200.92 62.5,210.45 L61.53,208.5 Z" id="Path" fill="#FFFFFF"></path>
                <path d="M57.1,180.86 C57.1,180.86 62.83,159.44 69.95,155.93 C69.95,155.93 69.47,180.93 58.95,185.93 L57.1,180.86 Z" id="Path" fill="#FFFFFF"></path>
                <path d="M53.6,162.72 L50.85,125.44 C50.85,125.44 65.45,153.1 54.85,169.27 L53.6,162.72 Z" id="Path" fill="#FFFFFF"></path>
                <path d="M41.7,126.02 C41.7,126.02 30.91,99.13 28.51,97.7 C28.51,97.7 48.31,114.7 47.31,137.48 L41.7,126.02 Z" id="Path" fill="#FFFFFF"></path>
                <path d="M132.6,416.44 C132.6,416.44 115.35,414.85 116.8,439.07 C116.8,439.07 132.4,441 136.69,420.76 L132.6,416.44 Z" id="Path" fill="#FFFFFF"></path>
                <path d="M115.7,397.06 C115.7,397.06 95.88,397.75 98.44,422.5 C98.44,422.5 115.19,424.84 119.8,401.59 L115.7,397.06 Z" id="Path" fill="#FFFFFF"></path>
                <path d="M103.95,379.61 C103.95,379.61 85.63,371.86 74.95,394.08 C74.95,394.08 91.84,400.47 105.67,383.08 L103.95,379.61 Z" id="Path" fill="#FFFFFF"></path>
                <path d="M91.83,358.96 C91.83,358.96 73.07,350.68 63.06,372.38 C63.06,372.38 82.51,378.25 93.48,362.26 L91.83,358.96 Z" id="Path" fill="#FFFFFF"></path>
                <path d="M84.61,340.87 C84.61,340.87 66.23,324.61 52.74,342.29 C52.74,342.29 71.39,355.53 85.57,344.61 L84.61,340.87 Z" id="Path" fill="#FFFFFF"></path>
                <path d="M77.77,317.43 C77.77,317.43 59.27,300.79 45.92,319.43 C45.92,319.43 66.49,332.88 78.55,321.02 L77.77,317.43 Z" id="Path" fill="#FFFFFF"></path>
                <path d="M73.63,296.45 C73.63,296.45 59.06,275.35 43.06,280.79 C43.06,280.79 58.2,303.15 73.67,301.54 L73.63,296.45 Z" id="Path" fill="#FFFFFF"></path>
                <path d="M68.82,276.67 C68.82,276.67 53.91,249.95 41.01,255.18 C41.01,255.18 51.79,275.74 69.34,281.23 L68.82,276.67 Z" id="Path" fill="#FFFFFF"></path>
                <path d="M66.87,250.97 C66.87,250.97 51.81,230.07 38.58,233.2 C38.58,233.2 51.05,254.5 68.49,257.13 L66.87,250.97 Z" id="Path" fill="#FFFFFF"></path>
                <path d="M64.95,229.14 C64.95,229.14 53,205.5 44.02,205.63 C44.02,205.63 50.23,229.33 64.36,233.21 L64.95,229.14 Z" id="Path" fill="#FFFFFF"></path>
                <path d="M61.95,207.96 C61.95,207.96 48.75,184.06 39.53,184.36 C39.53,184.36 46.61,204.96 61.62,210.12 L61.95,207.96 Z" id="Path" fill="#FFFFFF"></path>
                <path d="M59.12,182.24 C59.12,182.24 49.17,162.42 41.49,160.43 C41.49,160.43 47.02,184.83 58.31,187.63 L59.12,182.24 Z" id="Path" fill="#FFFFFF"></path>
                <path d="M52.48,162.06 L30.79,131.62 C30.79,131.62 37.22,162.24 55.7,167.9 L52.48,162.06 Z" id="Path" fill="#FFFFFF"></path>
                <path d="M37.11,128.71 C37.11,128.71 12.7,113.18 11.7,110.55 C11.7,110.55 24.7,133.13 47.36,136.33 L37.11,128.71 Z" id="Path" fill="#FFFFFF"></path>
                <path d="M35.4,121.37 C35.4,121.37 7.04,96.12 0.06,96.42 C0.06,96.42 22.66,96.58 36.06,119.95 L35.4,121.37 Z" id="Path" fill="#FFFFFF"></path>
                <path d="M59,186.24 L58,186.41 C51.32,146.36 42.91,122.87 34.33,120.25 L34.62,119.25 C43.7,122.01 52.16,145.16 59,186.24 Z" id="Path" fill="#444053"></path>
                <path d="M70.25,282.12 L68.75,282.3 C68.29,278.56 67.89,274.72 67.58,270.9 C64.87,237.65 61.47,207.15 57.67,184.33 L58.5,183.22 C62.31,206.08 66.37,237.48 69.09,270.78 C69.4,274.58 69.79,278.39 70.25,282.12 Z" id="Path" fill="#444053"></path>
                <path d="M192.53,459.89 C192.26,459.78 165.3,448.96 136.7,421.78 C119.951311,405.871399 105.829506,387.409096 94.86,367.08 C81.15,341.67 72.18,310.13 68.39,279.31 L69.99,279.99 C78.49,349.17 111.91,395.41 137.99,420.26 C166.31,447.2 192.99,457.91 193.24,458.01 L192.53,459.89 Z" id="Path" fill="#444053"></path>
                <g id="Group" opacity="0.7" transform="translate(129.000000, 0.000000)">
                    <path d="M76.54,378.45 C76.54,378.45 88.65,374.45 97.54,382.02 C97.54,382.02 92.77,387.22 80.03,383.16 L76.54,378.45 Z" id="Path" fill="#FFFFFF"></path>
                    <path d="M75.18,378.47 C75.18,378.47 68.84,389.54 74.49,399.75 C74.49,399.75 80.49,396.12 79.1,382.83 L75.18,378.47 Z" id="Path" fill="#FFFFFF"></path>
                    <path d="M65.45,363.58 C65.45,363.58 68.95,353.66 90.9,363.19 C90.9,363.19 89.25,369.76 80.38,370.68 C71.51,371.6 68.55,368.01 65.45,363.58 Z" id="Path" fill="#FFFFFF"></path>
                    <path d="M64.06,363.13 C64.06,363.13 53.56,363.63 56.38,387.4 C56.38,387.4 63.15,387.7 66.58,379.47 C70.01,371.24 67.42,367.37 64.06,363.13 Z" id="Path" fill="#FFFFFF"></path>
                    <path d="M55,345.24 C55,345.24 58.19,328.24 81.09,336.24 C81.09,336.24 78.68,351.77 58.04,350.36 L55,345.24 Z" id="Path" fill="#FFFFFF"></path>
                    <path d="M44.64,322.24 C44.64,322.24 52.94,304.24 74.78,316.16 C74.78,316.16 70.46,332.51 47.23,327.78 L44.64,322.24 Z" id="Path" fill="#FFFFFF"></path>
                    <path d="M38.6,299.79 C38.6,299.79 48.95,282.79 70.6,294.6 C70.6,294.6 60.6,309.66 39.23,303.6 L38.6,299.79 Z" id="Path" fill="#FFFFFF"></path>
                    <path d="M33.01,277.9 C33.01,277.9 43.41,260.22 64.2,271.99 C64.2,271.99 51.85,288.11 33.61,281.55 L33.01,277.9 Z" id="Path" fill="#FFFFFF"></path>
                    <path d="M30.97,257.99 C30.97,257.99 41.31,235.73 60.75,246.53 C60.75,246.53 48.96,266.13 31.59,261.8 L30.97,257.99 Z" id="Path" fill="#FFFFFF"></path>
                    <path d="M30.39,234.44 C30.39,234.44 41.58,212.21 60.79,224.75 C60.79,224.75 46.52,244.75 30.98,238.09 L30.39,234.44 Z" id="Path" fill="#FFFFFF"></path>
                    <path d="M31.86,213.07 C31.86,213.07 45.86,191.61 62.02,196.65 C62.02,196.65 47.45,219.38 31.94,218.16 L31.86,213.07 Z" id="Path" fill="#FFFFFF"></path>
                    <path d="M34.7,192.58 C34.7,192.58 50.7,166.51 63.39,172.28 C63.39,172.28 51.75,192.37 33.98,197.12 L34.7,192.58 Z" id="Path" fill="#FFFFFF"></path>
                    <path d="M39.59,168.55 C39.59,168.55 53.81,147.06 67.15,149.65 C67.15,149.65 55.55,171.44 38.23,174.76 L39.59,168.55 Z" id="Path" fill="#FFFFFF"></path>
                    <path d="M43.96,146.1 C43.96,146.1 60.11,125.1 68.91,126.92 C68.91,126.92 58.38,149.04 43.77,150.21 L43.96,146.1 Z" id="Path" fill="#FFFFFF"></path>
                    <path d="M48.41,125.31 C48.41,125.31 61.35,101.31 70.57,101.47 C70.57,101.47 63.71,122.14 48.76,127.47 L48.41,125.31 Z" id="Path" fill="#FFFFFF"></path>
                    <path d="M52.4,97.6 C52.4,97.6 64.25,78.86 72.09,77.6 C72.09,77.6 64.19,101.34 52.67,103.01 L52.4,97.6 Z" id="Path" fill="#FFFFFF"></path>
                    <path d="M54.46,79.24 L62.93,42.82 C62.93,42.82 68.64,73.57 53.7,85.82 L54.46,79.24 Z" id="Path" fill="#FFFFFF"></path>
                    <path d="M54.04,40.67 C54.04,40.67 51.73,11.79 49.87,9.67 C49.87,9.67 63.73,31.75 55.99,53.25 L54.04,40.67 Z" id="Path" fill="#FFFFFF"></path>
                    <path d="M54.39,344.97 C54.39,344.97 38.39,338.33 32.58,361.89 C32.58,361.89 46.89,368.37 57.01,350.32 L54.39,344.97 Z" id="Path" fill="#FFFFFF"></path>
                    <path d="M44.02,321.44 C44.02,321.44 24.89,316.21 19.97,340.6 C19.97,340.6 35.27,347.82 46.59,326.99 L44.02,321.44 Z" id="Path" fill="#FFFFFF"></path>
                    <path d="M38,301.29 C38,301.29 22.82,288.44 6,306.48 C6,306.48 20.22,317.61 38.61,305.1 L38,301.29 Z" id="Path" fill="#FFFFFF"></path>
                    <path d="M32.58,277.97 C32.58,277.97 17.12,264.49 1.12,282.22 C1.12,282.22 17.94,293.62 33.17,281.62 L32.58,277.97 Z" id="Path" fill="#FFFFFF"></path>
                    <path d="M31.07,258.56 C31.07,258.56 18.35,237.56 0.21,250.42 C0.21,250.42 14.08,268.62 30.87,262.42 L31.07,258.56 Z" id="Path" fill="#FFFFFF"></path>
                    <path d="M31.51,234.14 C31.51,234.14 18.79,212.75 0.51,226.59 C0.51,226.59 16.15,245.59 31.18,237.82 L31.51,234.14 Z" id="Path" fill="#FFFFFF"></path>
                    <path d="M33.79,212.87 C33.79,212.87 26.16,188.4 9.27,188.87 C9.27,188.87 17.07,214.73 32.32,217.79 L33.79,212.87 Z" id="Path" fill="#FFFFFF"></path>
                    <path d="M35.08,192.56 C35.08,192.56 28.8,162.61 14.93,163.77 C14.93,163.77 19.11,186.61 34.23,197.08 L35.08,192.56 Z" id="Path" fill="#FFFFFF"></path>
                    <path d="M40.88,167.45 C40.88,167.45 32.72,143.01 19.15,142.06 C19.15,142.06 24.72,166.11 40.59,173.81 L40.88,167.45 Z" id="Path" fill="#FFFFFF"></path>
                    <path d="M45.54,146.03 C45.54,146.03 41.16,119.91 32.54,117.36 C32.54,117.36 31.43,141.83 43.76,149.75 L45.54,146.03 Z" id="Path" fill="#FFFFFF"></path>
                    <path d="M48.97,124.92 C48.97,124.92 43.48,98.17 34.59,95.72 C34.59,95.72 35.22,117.49 48.02,126.88 L48.97,124.92 Z" id="Path" fill="#FFFFFF"></path>
                    <path d="M53.91,99.56 C53.91,99.56 50.31,77.68 43.57,73.49 C43.57,73.49 41.57,98.43 51.57,104.49 L53.91,99.56 Z" id="Path" fill="#FFFFFF"></path>
                    <path d="M53.59,78.24 L41.93,42.72 C41.93,42.72 38.93,73.86 54.93,84.77 L53.59,78.24 Z" id="Path" fill="#FFFFFF"></path>
                    <path d="M48.84,41.87 C48.84,41.87 30.11,19.76 29.97,16.97 C29.97,16.97 35.7,42.4 56.34,52.19 L48.84,41.87 Z" id="Path" fill="#FFFFFF"></path>
                    <path d="M49.39,34.36 C49.39,34.36 29.82,1.81 23.07,0.01 C23.07,0.01 44.59,6.9 50.39,33.17 L49.39,34.36 Z" id="Path" fill="#FFFFFF"></path>
                    <path d="M52.63,103.24 L51.63,103.1 C57.16,62.89 56.13,37.95 48.71,32.9 L49.28,32.07 C57.15,37.44 58.3,62.05 52.63,103.24 Z" id="Path" fill="#444053"></path>
                    <path d="M34.83,198.24 L33.34,197.97 C34.02,194.26 34.78,190.48 35.62,186.73 C42.93,154.18 48.76,124.06 51.91,101.14 L53.04,100.32 C49.88,123.32 44.41,154.47 37.1,187.07 C36.26,190.74 35.5,194.5 34.83,198.24 Z" id="Path" fill="#444053"></path>
                    <path d="M98.7,404.29 C98.48,404.11 75.96,385.76 56.7,351.29 C45.4442077,331.119641 37.4583605,309.291884 33.04,286.62 C27.51,258.28 28.32,225.5 33.88,194.95 L35.2,196.07 C22.75,264.65 40.9,318.75 58.44,350.24 C77.44,384.38 99.72,402.54 99.95,402.72 L98.7,404.29 Z" id="Path" fill="#444053"></path>
                </g>
                <path d="M621.07,695 L520.76,733.81 L374.14,790.48 C368.61,780.21 360.45,766.16 350.35,749.48 C315.63,691.93 258.17,602.42 207.03,523.76 C149.39,435.13 99.79,360.29 99.79,360.29 L135.7,349.88 L429.02,264.81 L621.07,695 Z" id="Path" fill="#000000" opacity="0.1"></path>
                <path d="M623.07,688 L522.76,726.81 L376.14,783.48 C370.61,773.21 362.45,759.16 352.35,742.48 C317.63,684.93 260.17,595.42 209.03,516.76 C151.39,428.13 101.79,353.29 101.79,353.29 L137.7,342.88 L431.02,257.81 L623.07,688 Z" id="Path" fill="#FFFFFF"></path>
                <path d="M623.07,688 L522.76,726.81 C466.734885,738.479946 409.563817,743.737095 352.35,742.48 C317.63,684.93 260.17,595.42 209.03,516.76 L137.7,342.88 L431.02,257.81 L623.07,688 Z" id="Path" fill="#000000" opacity="0.1"></path>
                <path d="M697.7,663.86 C697.7,663.86 541.86,756.04 309.2,735.24 L123.7,283.05 L212.59,267.78 L519.87,215.01 L694.22,655.12 L697.7,663.86 Z" id="Path" fill="#FFFFFF"></path>
                <path d="M694.22,655.12 C657.52,656.92 615.08,656.75 572.36,651.66 C526.14,646.24 479.7,635.02 439.8,614.48 C406.48,597.31 377.99,578.66 353.14,556.27 C288.53,498.15 248.54,415.01 212.63,267.78 L519.91,215.01 L694.22,655.12 Z" id="Path" fill="#000000" opacity="0.1"></path>
                <path d="M808.53,629.84 C808.53,629.84 693.61,652.36 576.75,638.49 C530.53,633.04 484.04,621.85 444.19,601.31 C410.87,584.14 382.38,565.49 357.53,543.1 C277.53,471.1 235.32,360.88 191.78,138.19 C191.78,138.19 382.78,184.28 571.49,83.32 C571.49,83.32 635.14,480.59 808.53,629.84 Z" id="Path" fill="#FFFFFF"></path>
                <path d="M576.75,638.49 C530.53,633.04 484.04,621.85 444.19,601.31 C410.87,584.14 382.38,565.49 357.53,543.1 C425.62,537.57 435.41,500.34 435.41,500.34 C485.89,580.46 576.75,638.49 576.75,638.49 Z" id="Path" fill="#000000" opacity="0.1"></path>
                <path d="M290.55,219.95 C290.55,219.95 393.15,231.66 489.18,177.7 L495.76,198.83 C495.76,198.83 403.89,244.64 290.55,244.64 L290.55,219.95 Z" id="Path" fill="#FFFFFF" opacity="0.3"></path>
                <path d="M290.55,324.24 C290.55,324.24 392.55,316.01 506.1,261.13 L509.94,269.91 C509.94,269.91 468.15,322.5 290.55,336.24 L290.55,324.24 Z" id="Path" fill="#000000" opacity="0.3"></path>
                <path d="M302.64,364.92 C302.64,364.92 404.64,356.69 518.19,301.82 L522.03,310.6 C522.03,310.6 480.25,363.24 302.64,376.99 L302.64,364.92 Z" id="Path" fill="#000000" opacity="0.3"></path>
                <path d="M313.7,408.77 C313.7,408.77 415.7,400.54 529.25,345.67 L533.09,354.45 C533.09,354.45 491.25,407.06 313.7,420.84 L313.7,408.77 Z" id="Path" fill="#000000" opacity="0.3"></path>
                <path d="M326.83,446.35 C326.83,446.35 428.83,438.12 542.38,383.25 L546.22,392.03 C546.22,392.03 504.44,444.65 326.83,458.43 L326.83,446.35 Z" id="Path" fill="#000000" opacity="0.3"></path>
                <path d="M338.93,487.07 C338.93,487.07 440.93,478.84 554.48,423.97 L558.32,432.75 C558.32,432.75 516.53,485.37 338.93,499.14 L338.93,487.07 Z" id="Path" fill="#000000" opacity="0.1"></path>
                <rect id="Rectangle" fill="#FFFFFF" opacity="0.3" transform="translate(542.077671, 252.875116) rotate(-18.800000) translate(-542.077671, -252.875116) " x="527.002671" y="237.800116" width="30.15" height="30.15"></rect>
                <rect id="Rectangle" fill="#FFFFFF" opacity="0.3" transform="translate(558.314656, 295.336248) rotate(-18.800000) translate(-558.314656, -295.336248) " x="543.239656" y="280.261248" width="30.15" height="30.15"></rect>
                <rect id="Rectangle" fill="#FFFFFF" opacity="0.3" transform="translate(584.344510, 377.035694) rotate(-18.800000) translate(-584.344510, -377.035694) " x="569.26951" y="361.960694" width="30.15" height="30.15"></rect>
                <rect id="Rectangle" fill="#FFFFFF" opacity="0.3" transform="translate(599.279335, 420.884837) rotate(-18.800000) translate(-599.279335, -420.884837) " x="584.204335" y="405.809837" width="30.15" height="30.15"></rect>
                <rect id="Rectangle" fill="#FFFFFF" opacity="0.3" transform="translate(571.553432, 339.446149) rotate(-18.800000) translate(-571.553432, -339.446149) " x="556.478432" y="324.371149" width="30.15" height="30.15"></rect>
                <path d="M879.4,443.57 L878.33,442.57 C881.09,442.01 883.69,441.76 883.69,441.76 C883.69,441.76 874.22,407.5 858.25,396.07 C850.35,390.42 843.77,381.01 839.12,372.94 C830.643637,358.347474 821.12209,344.387663 810.63,331.17 L807.75,327.54 L806.51,325.96 C808.24,323.34 810.36,320.85 810.12,317.81 C810.115321,317.790274 810.115321,317.769726 810.12,317.75 C810.13001,317.590157 810.13001,317.429843 810.12,317.27 C810.090926,316.894203 810.023918,316.522311 809.92,316.16 L809.81,316.33 C808.46,312.41 803.27,310.68 799.42,308.52 C790.42,303.45 786.57,292.37 784.65,282.07 C783.15,274.07 781.91,265.07 775.65,259.92 C771.65,256.61 766.21,255.52 762.18,252.23 C758.36,249.11 756.23,244.38 753.83,240.03 C749.83,232.78 744.55,226.03 737.58,221.7 C730.61,217.37 721.76,215.7 714.11,218.6 C711.18,219.72 708.52,221.46 705.62,222.67 C698.42,225.67 690.17,225.27 683.04,228.44 C674.26,232.34 668.55,240.96 663.33,249.14 C660.63,253.37 656.39,259.56 653.98,265.79 C653.98,265.57 653.98,265.36 653.98,265.14 C652.824027,267.884991 652.193122,270.822433 652.12,273.8 C652.072635,275.066619 652.210764,276.333356 652.53,277.56 C653.61,281.56 656.83,283.77 660.65,285.31 C660.871173,286.582425 661.164987,287.84115 661.53,289.08 C665.038751,300.627635 673.959013,309.738245 685.43,313.49 C685.76,313.61 686.1,313.69 686.43,313.79 C686.707945,314.581598 687.109594,315.324143 687.62,315.99 C690.81,319.99 697.21,318.85 701.37,315.94 C701.54,315.83 701.7,315.69 701.86,315.57 C701.888012,316.136282 701.948109,316.700521 702.04,317.26 C702.13,317.74 702.2,318.26 702.3,318.69 C706.05,338.9 715.65,349.81 715.65,349.81 C715.65,349.81 716.54,351.15 717.99,353.37 C717.23,364.52 722.32,374.68 728.2,382.53 C723.13,385.46 712.2,391.2 705.44,390.72 C705.44,390.72 680.6,393.93 677.72,392.32 C677.32,392.1 676.94,392.4 676.58,393.08 C669.74,388.91 647.87,376.89 646,392.32 C644.31,406.32 664.24,408.11 673.73,408.18 C673.3,412.28 673.06,415.56 673.06,415.56 L713.87,412.77 L735.12,409.64 C732.77,412.75 730.12,415.52 727.53,416.87 C727.53,416.87 708.32,432.42 705,432.56 C704.53,432.56 704.38,433.03 704.45,433.78 C696.37,433.78 671.24,434.95 678.21,448.95 C684.54,461.64 702.36,452.86 710.42,448.01 C712.32,451.7 713.94,454.59 713.94,454.59 L746.87,431.14 L754,425.14 C756.416551,425.023595 758.804044,424.56226 761.09,423.77 C761.09,423.86 761.16,423.95 761.19,424.03 C761.444654,424.765535 761.635362,425.521673 761.76,426.29 C763.76,437.78 757.04,464.58 757.04,464.58 C757.04,464.58 742.26,502.27 749.36,507.41 C756.46,512.55 751.21,534.24 751.21,534.24 C752.449262,536.324793 753.875106,538.292859 755.47,540.12 C756.221865,540.988225 757.055727,541.7819 757.96,542.49 C757.63006,543.388827 757.356201,544.307258 757.14,545.24 C756.055142,549.860873 756.464807,554.706826 758.31,559.08 C763.19,570.92 760.22,588.08 760.22,588.08 L750.64,652.8 C746.04,652.1 740.1,651.52 737.89,652.8 C734.5,654.71 735.61,664.34 743.48,668.48 C741.090536,670.309488 738.323517,671.583683 735.38,672.21 C728.38,673.81 723.46,674.83 720.22,675.45 C720.01,675.45 703.42,671.79 699.16,674.21 C694.9,676.63 696.95,690.05 709.07,693.34 C720.93,696.55 765.16,701.26 777.9,699.34 L778.71,699.2 C789.54,697.06 780.03,682.83 778.83,681.1 C778.75,680.52 778.68,679.91 778.6,679.25 C778.43,677.77 778.28,676.07 778.17,674.25 C790.25,675.36 802.17,675.9 807.64,675.08 C807.9,675.08 808.14,675 808.36,674.95 C817.95,673.05 809.55,660.47 808.47,658.95 C808.423333,658.563333 808.373333,658.153333 808.32,657.72 L808.32,657.61 C808.32,657.32 808.25,657.01 808.22,656.71 C808.19,656.41 808.22,656.2 808.14,655.93 C808.06,655.66 808.14,655.45 808.07,655.2 C808.03,654.706667 807.99,654.196667 807.95,653.67 C807.95,653.46 807.95,653.24 807.95,653.02 C807.95,652.62 807.9,652.22 807.88,651.81 C807.88,651.59 807.88,651.37 807.88,651.14 C807.88,650.54 807.88,649.92 807.82,649.3 C807.82,649.13 807.82,648.96 807.82,648.79 C807.82,648.29 807.82,647.79 807.82,647.27 C807.82,647.03 807.82,646.79 807.82,646.54 C807.82,646.01 807.82,645.48 807.82,644.94 C807.82,644.76 807.82,644.59 807.82,644.41 C807.82,643.74 807.88,643.05 807.92,642.36 L807.98,641.62 C807.98,641.11 808.06,640.62 808.11,640.1 C808.11,639.85 808.11,639.6 808.19,639.35 C808.27,638.65 808.36,637.95 808.46,637.24 C808.46,637.03 808.53,636.82 808.56,636.61 C808.65,636.08 808.74,635.54 808.84,635 C808.84,634.74 808.94,634.47 809,634.2 C809.12,633.62 809.25,633.04 809.39,632.46 C809.39,632.3 809.46,632.14 809.5,631.98 C809.68,631.28 809.88,630.59 810.09,629.9 C810.16,629.66 810.24,629.42 810.32,629.18 C810.49,628.66 810.67,628.18 810.86,627.64 L811.1,627 C811.37,626.32 811.66,625.65 811.96,625 C812.04,624.83 812.13,624.66 812.22,624.49 C812.47,623.97 812.74,623.49 813.02,622.95 L813.36,622.36 C813.74,621.72 814.13,621.08 814.56,620.47 C825.56,604.79 828.46,574.55 828.19,567.97 C827.92,561.39 829.5,547.74 831.47,545.72 C832.79,544.37 840.47,533.72 845.06,525.62 C845.89,524.14 846.61,522.75 847.18,521.51 C850.44,520.38 852.6,519.51 852.6,519.51 C851.451048,515.311604 850.898962,510.972344 850.96,506.62 C851.04,498.11 853.38,486.9 863.04,477.8 C877.3,464.36 879.29,451.04 879.48,445.92 C879.48,445.56 879.48,445.24 879.48,444.97 C879.45,444.03 879.4,443.57 879.4,443.57 Z" id="Path" fill="url(#linearGradient-1)"></path>
                <path d="M841.4,527.44 C837.529894,534.355092 833.186198,540.994264 828.4,547.31 C826.52,549.31 825.01,562.82 825.27,569.31 C825.53,575.8 822.78,605.72 812.27,621.22 C801.76,636.72 807.16,663.51 807.16,663.51 L790.39,669.39 L770.24,669.39 L756.36,665.24 L752.7,655.14 C752.7,655.14 757.58,654.39 769.7,651.51 C776.608583,650.103357 781.737362,644.271669 782.25,637.24 L790.76,577.81 C790.76,577.81 793.27,562.81 789.13,552.43 C786.766826,546.509926 787.268708,539.830468 790.49,534.33 L790.76,533.91 C790.76,533.91 803.89,523.54 817.27,517.05 C829.12,511.33 841.14,508.61 844.55,518.76 C844.99,520.07 843.55,523.44 841.4,527.44 Z" id="Path" fill="#A5636D"></path>
                <path d="M841.4,527.44 C837.529894,534.355092 833.186198,540.994264 828.4,547.31 C826.52,549.31 825.01,562.82 825.27,569.31 C825.53,575.8 822.78,605.72 812.27,621.22 C804.87,632.15 805.36,648.67 806.27,657.48 C806.66,661.17 807.14,663.48 807.14,663.48 L790.37,669.36 L770.24,669.36 L756.36,665.24 L752.7,655.14 C752.7,655.14 753.92,654.95 756.7,654.41 C759.48,653.87 763.7,652.95 769.76,651.51 C776.644948,650.0798 781.744301,644.253719 782.25,637.24 L790.76,577.81 C790.76,577.81 793.27,562.81 789.13,552.43 C786.766826,546.509926 787.268708,539.830468 790.49,534.33 L790.76,533.91 C790.76,533.91 803.89,523.54 817.27,517.05 C829.12,511.33 841.14,508.61 844.55,518.76 C844.99,520.07 843.55,523.44 841.4,527.44 Z" id="Path" fill="#000000" opacity="0.05"></path>
                <path d="M807.16,663.52 L790.39,669.4 L770.24,669.4 L756.36,665.24 L752.7,655.14 C752.7,655.14 753.92,654.95 756.7,654.41 C756.293625,658.208101 758.787978,661.711358 762.51,662.57 L770.39,662.84 C771.5,662.84 772.62,662.9 773.72,662.9 C784.804057,662.905978 795.812726,661.077958 806.3,657.49 C806.7,661.18 807.16,663.52 807.16,663.52 Z" id="Path" fill="#000000" opacity="0.1"></path>
                <path d="M770.38,664.54 L762.49,664.27 C762.49,664.27 755.13,662.71 756.93,654.36 C756.93,654.36 742.73,651.14 739.1,653.27 C735.47,655.4 737.22,667.15 747.48,670.03 C757.48,672.84 794.94,676.97 805.71,675.28 L806.4,675.16 C816.16,673.16 806.4,659.16 806.4,659.16 C794.819159,663.123746 782.613629,664.946782 770.38,664.54 Z" id="Path" fill="#BEBED0"></path>
                <path d="M818.97,529.74 C818.44,530.8 817.87,531.9 817.22,533.05 C812.27,542.05 804.33,553.38 802.94,554.85 C800.82,557.11 799.13,572.35 799.4,579.71 C799.67,587.07 796.59,620.79 784.73,638.29 C778.66,647.29 777.29,659.54 777.39,669.4 C777.419883,672.741083 777.616795,676.078583 777.98,679.4 C778.42,683.47 778.98,686.01 778.98,686.01 L760.06,692.64 L737.29,692.64 L721.62,687.98 L717.52,676.54 C717.52,676.54 718.89,676.32 721.97,675.71 C725.05,675.1 729.85,674.08 736.71,672.46 C744.487083,670.851301 750.254239,664.280089 750.84,656.36 L760.43,589.29 C760.43,589.29 763.26,572.34 758.6,560.64 C756.840948,556.297273 756.450184,551.520889 757.48,546.95 C758.037573,544.382474 759.053855,541.936623 760.48,539.73 C760.48,539.73 764.14,536.85 769.66,533.04 C772.1,531.36 774.93,529.5 777.97,527.62 C791.33,519.35 808.9,510.91 817.32,517.06 C819.177226,518.461058 820.536962,520.420059 821.2,522.65 C821.54,523.81 820.59,526.44 818.97,529.74 Z" id="Path" fill="#A5636D"></path>
                <path d="M778.93,686.02 L760.01,692.65 L737.29,692.65 L721.62,687.99 L717.52,676.55 C717.52,676.55 718.89,676.33 721.97,675.72 C721.570488,678.472617 722.567838,681.243452 724.63,683.11 C726.20677,684.450176 728.200855,685.199726 730.27,685.23 L737.44,685.46 C738.69,685.46 739.95,685.53 741.2,685.53 C753.713164,685.526894 766.140071,683.459121 777.98,679.41 C778.42,683.48 778.93,686.02 778.93,686.02 Z" id="Path" fill="#000000" opacity="0.1"></path>
                <path d="M737.43,687.16 L730.27,686.92 C728.198813,686.884609 726.203236,686.135826 724.62,684.8 C722.8,683.18 721.23,680.38 722.25,675.67 C722.25,675.67 706.25,672.04 702.12,674.44 C697.99,676.84 700.01,690.11 711.58,693.36 C722.91,696.53 765.15,701.19 777.31,699.29 L778.08,699.15 C789.08,696.89 778.08,681.07 778.08,681.07 C765.013783,685.557949 751.237767,687.62181 737.43,687.16 Z" id="Path" fill="#BEBED0"></path>
                <path d="M841.4,527.44 C834.55,529.83 824.49,533 818.97,533.13 C818.398762,533.151967 817.826692,533.125204 817.26,533.05 C813.4,532.52 801.47,533.37 790.53,534.35 C786.14,534.74 781.92,535.15 778.43,535.51 C773.23,536.05 769.65,536.44 769.65,536.44 L769.65,533.05 C772.09,531.37 774.92,529.51 777.96,527.63 C791.32,519.36 808.89,510.92 817.31,517.07 C829.16,511.35 841.18,508.63 844.59,518.78 C844.99,520.07 843.55,523.44 841.4,527.44 Z" id="Path" fill="#000000" opacity="0.1"></path>
                <path d="M874.27,448.57 C874.08,453.64 872.18,466.8 858.56,480.1 C841.2,497.05 848.56,521.39 848.56,521.39 C848.56,521.39 827.86,529.52 818.93,529.74 C818.358762,529.761967 817.786692,529.735204 817.22,529.66 C811.86,528.91 790.58,530.88 778.35,532.12 C773.15,532.66 769.57,533.05 769.57,533.05 L769.57,461.05 L865.5,437.76 L874.19,446.41 C874.265325,447.127374 874.292053,447.84902 874.27,448.57 Z" id="Path" fill="#5C5C8E"></path>
                <g id="Group" opacity="0.1" transform="translate(769.000000, 437.000000)" fill="#000000">
                    <path d="M2.19,95.16 L0.61,95.33 L0.61,96.09 C0.61,96.09 4.19,95.7 9.39,95.16 C18.17,94.27 31.58,93.02 40.45,92.65 C34.31,92.09 14.03,93.96 2.19,95.16 Z" id="Path"></path>
                    <path d="M105.23,9.45 L96.54,0.79 L90.75,2.24 L98.03,9.49 C98.0791076,10.2124998 98.0791076,10.9375002 98.03,11.66 C97.84,16.72 95.94,29.89 82.32,43.19 C64.96,60.13 72.32,84.48 72.32,84.48 C72.32,84.48 55.19,91.2 45.38,92.59 C46.3154191,92.5870041 47.2502547,92.6370846 48.18,92.74 C48.7463783,92.818837 49.3184752,92.8489474 49.89,92.83 C58.82,92.61 79.52,84.48 79.52,84.48 C79.52,84.48 72.12,60.13 89.52,43.19 C103.14,29.89 105.04,16.72 105.23,11.66 C105.280937,10.9242138 105.280937,10.1857862 105.23,9.45 Z" id="Path"></path>
                </g>
                <path d="M682.57,397.71 C682.57,397.71 653.57,377.59 651.44,395.71 C649.31,413.83 682.57,411.24 682.57,411.24 L682.57,397.71 Z" id="Path" fill="#A5636D"></path>
                <path d="M732.57,384.37 C732.57,384.37 716.88,394.75 708.2,394.11 C708.2,394.11 684.48,397.29 681.72,395.7 C678.96,394.11 677.28,418.7 677.28,418.7 L716.28,415.95 L741.28,412.13 C741.28,412.13 753.78,404.51 753.78,397.94 C753.78,391.37 732.57,384.37 732.57,384.37 Z" id="Path" fill="#F7CDDD"></path>
                <path d="M732.57,384.37 C732.57,384.37 716.88,394.75 708.2,394.11 C708.2,394.11 684.48,397.29 681.72,395.7 C678.96,394.11 677.28,418.7 677.28,418.7 L716.28,415.95 L741.28,412.13 C741.28,412.13 753.78,404.51 753.78,397.94 C753.78,391.37 732.57,384.37 732.57,384.37 Z" id="Path" fill="#000000" opacity="0.05"></path>
                <path d="M709.56,436.73 C709.56,436.73 674.29,435.27 682.19,451.73 C690.09,468.19 716.82,448.21 716.82,448.21 L709.56,436.73 Z" id="Path" fill="#A5636D"></path>
                <path d="M745.04,401.74 C745.04,401.74 716.45,380.35 720.48,354.3 C724.51,328.25 745.04,374.24 745.04,374.24 L745.04,401.74 Z" id="Path" fill="#5C5C8E"></path>
                <path d="M737.14,283.64 C737.129892,293.011235 733.484028,302.01297 726.97,308.75 C725.38446,310.405508 723.635562,311.896427 721.75,313.2 C718.149957,315.71037 714.135016,317.565503 709.89,318.68 C708.203045,319.101334 706.488948,319.405394 704.76,319.59 C703.52,319.71 702.27,319.78 701,319.78 C696.944524,319.803228 692.915439,319.126639 689.09,317.78 C671.717824,311.716228 661.674871,293.568219 665.763551,275.628193 C669.852231,257.688168 686.767098,245.684068 705.051178,247.746651 C723.335258,249.809235 737.150757,265.279954 737.14,283.68 L737.14,283.64 Z" id="Path" fill="#A5636D"></path>
                <path d="M874.27,448.57 C871.03,449.17 867.03,450.25 867.03,451.93 C867.03,454.76 821.85,470.01 821.85,470.01 C821.85,470.01 823.54,473.95 819.03,480.73 C814.52,487.51 777.8,526.47 777.8,526.47 L777.92,527.63 L778.39,532.12 L780.63,553.58 C780.63,553.58 766.51,548.5 761.99,549.06 C760.53,549.25 758.99,548.31 757.48,546.96 C758.037573,544.392474 759.053855,541.946623 760.48,539.74 C760.48,539.74 764.14,536.86 769.66,533.05 L769.66,461.05 L865.59,437.76 L874.28,446.41 C874.325326,447.129403 874.321986,447.851047 874.27,448.57 Z" id="Path" fill="#000000" opacity="0.1"></path>
                <path d="M878.33,444.59 C878.33,444.59 867.03,445.71 867.03,448.54 C867.03,451.37 821.85,466.62 821.85,466.62 C821.85,466.62 823.54,470.56 819.03,477.34 C814.52,484.12 777.8,523.09 777.8,523.09 L780.63,550.19 C780.63,550.19 766.51,545.11 761.99,545.67 C759.99,545.92 757.74,544.06 755.89,541.89 C754.361137,540.079851 752.998934,538.135281 751.82,536.08 C751.82,536.08 756.91,514.61 750.13,509.53 C743.35,504.45 757.47,467.18 757.47,467.18 C757.47,467.18 763.85,440.68 761.97,429.31 C761.853501,428.549439 761.672857,427.8001 761.43,427.07 C761.43,426.99 761.38,426.9 761.35,426.82 C757.35,415.96 713.99,324.82 713.99,324.82 C714.017248,322.234933 714.197564,319.653748 714.53,317.09 C714.62,316.38 714.74,315.64 714.87,314.89 C715.089815,313.541549 715.383592,312.206201 715.75,310.89 C715.979598,310.04623 716.253307,309.215088 716.57,308.4 C717.91,304.96 719.96,302.31 723.02,302.25 C723.02,302.25 726.41,298.5 734.36,297.48 C740.18,296.72 748.49,297.48 759.74,302.25 C786.27,313.53 792.49,314.11 792.49,314.11 L805.82,331.61 L808.56,335.2 C818.603869,348.299753 827.697108,362.101693 835.77,376.5 C840.21,384.5 846.5,393.79 854.04,399.38 C869.29,410.71 878.33,444.59 878.33,444.59 Z" id="Path" fill="#F7CDDD"></path>
                <path d="M779.35,379.29 C779.35,379.29 817.05,388.61 831.66,412.11 L779.35,379.29 Z" id="Path" fill="#000000" opacity="0.1"></path>
                <path d="M791,420.58 C791,420.58 798.13,468.45 796.15,472.05 C794.17,475.65 791,420.58 791,420.58 Z" id="Path" fill="#000000" opacity="0.1"></path>
                <path d="M788.45,445.15 C785.71,448.74 774.58,476.49 774.58,476.49 L777.79,523.09 L780.62,550.19 C780.62,550.19 766.51,545.11 761.99,545.67 C759.99,545.92 757.73,544.06 755.89,541.89 C758.82,526.02 765.09,492.81 766.22,492.17 C767.71,491.32 775.34,464.64 775.74,457.17 C776.14,449.7 786.74,433.05 786.74,433.05 C786.74,433.05 791.21,441.56 788.45,445.15 Z" id="Path" fill="#000000" opacity="0.1"></path>
                <path d="M777.8,399.41 C777.1,401.52 776.02,413.81 776.02,413.81 C775.24,424.63 767.02,428.17 761.97,429.31 C761.853501,428.549439 761.672857,427.8001 761.43,427.07 C758.04,417.48 713.99,324.86 713.99,324.86 C714.036426,320.160962 714.627029,315.483118 715.75,310.92 C725.34,308.1 740.52,312.44 740.52,312.44 C744.91,311.86 759.23,340.33 759.23,340.33 C759.23,340.33 768.77,362.13 769.82,365.1 C770.87,368.07 769.82,372.94 770.24,374.64 C770.66,376.34 775.12,377.8 775.75,380.14 C776.38,382.48 775.97,387.14 776.39,387.97 C776.81,388.8 778.51,397.29 777.8,399.41 Z" id="Path" fill="#000000" opacity="0.1"></path>
                <path d="M774.41,397.71 C773.71,399.83 772.63,412.11 772.63,412.11 C771.99,421.11 766.19,425.11 761.35,426.82 C759.168363,427.599802 756.883943,428.054665 754.57,428.17 L747.76,434.09 L716.31,457.24 C716.31,457.24 704.59,435.57 707.77,435.45 C710.95,435.33 729.29,419.93 729.29,419.93 C734.9,416.93 740.52,406.93 743.13,401.79 C742.979753,401.177318 742.866218,400.556214 742.79,399.93 C741.66,390.34 717.94,353.62 717.94,353.62 C717.94,353.62 708.77,342.83 705.2,322.84 C705.1,322.38 705.03,321.91 704.94,321.43 C704.838754,320.807969 704.778624,320.179941 704.76,319.55 C704.33,311.86 709.93,309.06 716.57,308.4 C720.037906,308.124701 723.52558,308.232014 726.97,308.72 C730.401918,309.152256 733.799968,309.820506 737.14,310.72 C739.98,310.34 746.98,322.15 751.57,330.52 C754.04,335.06 755.82,338.6 755.82,338.6 C755.82,338.6 765.36,360.41 766.41,363.37 C767.46,366.33 766.41,371.22 766.83,372.91 C767.25,374.6 771.71,376.08 772.34,378.42 C772.97,380.76 772.56,385.42 772.98,386.25 C773.4,387.08 775.12,395.59 774.41,397.71 Z" id="Path" fill="#F7CDDD"></path>
                <path d="M810.89,348.85 C804.89,354.98 795.2,355 787.42,351.85 C779.64,348.7 773.05,343.06 765.84,338.67 C761.16,335.81 756.2,333.47 751.59,330.52 C750.91,330.08 750.25,329.64 749.59,329.18 C744.27,325.42 739.66,320.59 734.15,317.18 C730.464591,314.728752 726.173102,313.344401 721.75,313.18 C719.713568,313.161682 717.697334,313.584715 715.84,314.42 C715.49569,314.559907 715.161547,314.723637 714.84,314.91 C713.025873,315.95025 711.346596,317.209708 709.84,318.66 C708.28,320.06 706.79,321.55 705.15,322.86 C705.05,322.4 704.98,321.93 704.89,321.45 C704.788754,320.827969 704.728624,320.199941 704.71,319.57 C703.47,319.69 702.22,319.76 700.95,319.76 C696.894524,319.783228 692.865439,319.106639 689.04,317.76 C689.04,317.61 689.04,317.46 688.95,317.31 C687.6,310.19 685.16,302.65 679.43,298.65 C676.11,296.33 670.81,295.38 666.21,293.65 C661.830816,278.405882 667.902709,262.087913 681.181627,253.414349 C694.460545,244.740784 711.842948,245.738805 724.041882,255.875195 C736.240817,266.011584 740.405154,282.917272 734.31,297.56 C740.13,296.8 748.44,297.56 759.69,302.33 C786.22,313.61 792.44,314.19 792.44,314.19 L805.77,331.69 C804.33,333.89 802.7,336.06 802.55,338.63 C802.3,343.34 806.89,346.63 810.89,348.85 Z" id="Path" fill="#000000" opacity="0.1"></path>
                <path d="M679.47,295.24 C685.2,299.24 687.64,306.77 689,313.88 C689.42,316.1 689.82,318.44 691.18,320.2 C694.18,324.14 700.34,323.03 704.31,320.2 C708.28,317.37 711.41,313.08 715.84,311.08 C721.72,308.42 728.64,310.36 734.15,313.81 C739.66,317.26 744.27,322.09 749.59,325.81 C754.74,329.44 760.48,332.03 765.84,335.3 C773.05,339.69 779.64,345.36 787.42,348.48 C795.2,351.6 804.92,351.59 810.88,345.48 C806.88,343.26 802.29,339.98 802.6,335.22 C802.91,330.46 808.45,326.91 808.08,322.03 C807.71,317.15 801.97,315.24 797.85,312.84 C789.25,307.84 785.58,296.84 783.74,286.69 C782.31,278.75 781.13,269.88 775.2,264.78 C771.37,261.5 766.2,260.43 762.34,257.18 C758.69,254.09 756.66,249.42 754.34,245.11 C750.51,237.94 745.48,231.27 738.83,226.98 C732.18,222.69 723.72,220.98 716.42,223.92 C713.62,225.03 711.07,226.75 708.31,227.92 C701.43,230.92 693.56,230.49 686.75,233.62 C678.36,237.48 672.91,246 667.92,254.09 C663.7,261.02 655.33,273.24 657.7,282.24 C660.06,291.39 673.25,290.9 679.47,295.24 Z" id="Path" fill="#4C3E42"></path>
                <g id="Group" opacity="0.1" transform="translate(657.000000, 269.000000)" fill="#000000">
                    <path d="M151.07,52.48 C151.039288,52.1084403 150.975706,51.7403336 150.88,51.38 C149.36,53.77 147.47,56.09 147.29,58.89 C147.251119,59.5376705 147.304997,60.1875738 147.45,60.82 C149.14,58.13 151.31,55.6 151.07,52.48 Z" id="Path"></path>
                    <path d="M132.11,72.18 C124.33,69.06 117.75,63.39 110.54,59 C105.17,55.73 99.43,53.14 94.28,49.51 C88.96,45.75 84.35,40.92 78.84,37.51 C73.33,34.1 66.42,32.12 60.53,34.77 C56.1,36.77 52.98,41.02 49,43.9 C45.02,46.78 38.92,47.9 35.87,43.9 C34.51,42.14 34.11,39.8 33.69,37.58 C32.34,30.47 29.89,22.94 24.17,18.94 C17.94,14.59 4.75,15.08 2.36,5.94 C1.9611694,4.30487507 1.85620296,2.61186784 2.05,0.94 C0.52,5.02 -0.27,9.12 0.66,12.69 C3.06,21.87 16.25,21.38 22.47,25.69 C28.2,29.69 30.64,37.23 32,44.34 C32.42,46.56 32.82,48.9 34.17,50.66 C37.17,54.6 43.33,53.49 47.31,50.61 C51.29,47.73 54.4,43.49 58.84,41.49 C64.72,38.84 71.64,40.78 77.15,44.23 C82.66,47.68 87.27,52.51 92.59,56.23 C97.74,59.87 103.48,62.45 108.84,65.72 C116.05,70.12 122.64,75.79 130.42,78.91 C138.2,82.03 147.92,82.01 153.88,75.91 C152.338325,75.0818207 150.875574,74.1144634 149.51,73.02 C144.09,75.01 137.62,74.39 132.11,72.18 Z" id="Path"></path>
                </g>
                <path d="M612.12,409.58 L692.12,379.7 C694.009548,378.991231 696.103409,379.063095 697.939916,379.899747 C699.776423,380.736399 701.204761,382.269132 701.91,384.16 C702.615483,386.050993 702.540874,388.144789 701.702585,389.980772 C700.864297,391.816755 699.330998,393.24453 697.44,393.95 L617.44,423.84 L600.3,422.12 L612.12,409.58 Z" id="Path" fill="#5C5C8E"></path>
                <path d="M699.48,381.76 C700.949725,385.700477 698.94911,390.086614 695.01,391.56 L615.01,421.44 L602.13,420.15 L600.28,422.15 L617.42,423.87 L697.42,393.98 C699.310998,393.27453 700.844297,391.846755 701.682585,390.010772 C702.520874,388.174789 702.595483,386.080993 701.89,384.19 C701.303697,382.613339 700.209595,381.276494 698.78,380.39 C699.055345,380.823953 699.28969,381.282599 699.48,381.76 Z" id="Path" fill="#FFFFFF" opacity="0.1"></path>
                <polygon id="Path" fill="#EFC8C4" points="612.12 409.58 617.45 423.84 603.38 422.43 600.3 422.12 604.51 417.66"></polygon>
                <path d="M604.5,417.66 C604.831043,417.90184 605.109932,418.207938 605.32,418.56 C605.59097,418.983716 605.59097,419.526284 605.32,419.95 C605.089644,420.172129 604.826587,420.357618 604.54,420.5 C603.882457,420.932873 603.461713,421.645186 603.4,422.43 L600.32,422.12 L604.5,417.66 Z" id="Path" fill="#727A9C"></path>
                <path d="M542.29,255.07 L528.8,248.49 C528.411426,248.300404 528.114098,247.964195 527.973441,247.555353 C527.832784,247.146511 527.860324,246.698535 528.05,246.31 L529.48,243.37 C529.667543,242.979515 530.003662,242.680407 530.413285,242.539481 C530.822908,242.398556 531.271908,242.427555 531.66,242.62 L540.75,247.05 L550.24,227.59 C550.635084,226.781471 551.607891,226.442327 552.42,226.83 L555.36,228.27 C555.750485,228.457543 556.049593,228.793662 556.190519,229.203285 C556.331444,229.612908 556.302445,230.061908 556.11,230.45 L544.47,254.32 C544.280404,254.708574 543.944195,255.005902 543.535353,255.146559 C543.126511,255.287216 542.678535,255.259676 542.29,255.07 Z" id="Path" fill="#3ACC6C"></path>
                <path d="M571.76,339.24 L558.27,332.66 C557.881426,332.470404 557.584098,332.134195 557.443441,331.725353 C557.302784,331.316511 557.330324,330.868535 557.52,330.48 L558.95,327.54 C559.348883,326.729546 560.328025,326.394224 561.14,326.79 L570.22,331.22 L579.7,311.74 C580.095084,310.931471 581.067891,310.592327 581.88,310.98 L584.81,312.42 C585.200337,312.607797 585.499872,312.943239 585.642466,313.352259 C585.785061,313.76128 585.758986,314.210237 585.57,314.6 L573.93,338.47 C573.527244,339.27604 572.552329,339.609915 571.74,339.22 L571.76,339.24 Z" id="Path" fill="#3ACC6C"></path>
                <path d="M558.53,297.75 L545.04,291.17 C544.231471,290.774916 543.892327,289.802109 544.28,288.99 L545.72,286.05 C545.907543,285.659515 546.243662,285.360407 546.653285,285.219481 C547.062908,285.078556 547.511908,285.107555 547.9,285.3 L556.99,289.73 L566.48,270.24 C566.669596,269.851426 567.005805,269.554098 567.414647,269.413441 C567.823489,269.272784 568.271465,269.300324 568.66,269.49 L571.6,270.92 C572.40604,271.322756 572.739915,272.297671 572.35,273.11 L560.7,297 C560.510404,297.388574 560.174195,297.685902 559.765353,297.826559 C559.356511,297.967216 558.908535,297.939676 558.52,297.75 L558.53,297.75 Z" id="Path" fill="#3ACC6C"></path>
                <path d="M584.56,377.24 L571.07,370.66 C570.681426,370.470404 570.384098,370.134195 570.243441,369.725353 C570.102784,369.316511 570.130324,368.868535 570.32,368.48 L571.75,365.54 C571.939596,365.151426 572.275805,364.854098 572.684647,364.713441 C573.093489,364.572784 573.541465,364.600324 573.93,364.79 L583.02,369.22 L592.51,349.76 C592.90913,348.950172 593.885015,348.611509 594.7,349 L597.63,350.44 C598.020485,350.627543 598.319593,350.963662 598.460519,351.373285 C598.601444,351.782908 598.572445,352.231908 598.38,352.62 L586.75,376.49 C586.347244,377.29604 585.372329,377.629915 584.56,377.24 Z" id="Path" fill="#3ACC6C"></path>
            </g>
        </g>
    </g>
</svg>