<svg viewBox="-415.68753415972424 -102.99999999999999 1570.6937763569779 199.99999999999997" xmlns="http://www.w3.org/2000/svg" xmlns:xlink="http://www.w3.org/1999/xlink" version="1.1" class="jsx-2263963463 artboard-inner" style="width: 480px; height: 61.1195px; max-height: 100%;"><g transform="translate(-9.737827715355806 58.3770287141074) scale(1.7339436815092246)" fill="#fff"><g id="line1"><path d="M5.616 0L16.056 0L16.056-21.960L33.768-21.960L33.768-31.176L16.056-31.176L16.056-46.512L35.928-46.512L35.928-55.656L5.616-55.656Z"></path><path d="M115.258-9.072C104.962-9.072 96.826-17.496 96.826-27.864C96.826-38.304 104.962-46.728 115.258-46.728C125.554-46.728 133.762-38.304 133.762-27.864C133.762-17.496 125.554-9.072 115.258-9.072ZM115.258 0.936C131.242 0.936 144.274-11.952 144.274-27.864C144.274-43.848 131.242-56.736 115.258-56.736C99.346-56.736 86.386-43.848 86.386-27.864C86.386-11.952 99.346 0.936 115.258 0.936Z"></path><path d="M199.339 0L209.779 0L209.779-19.944L214.315-19.944L228.787 0L240.523 0L225.547-20.232C233.899-21.960 239.947-28.512 239.947-37.584C239.947-48.528 231.739-55.656 221.155-55.656L199.339-55.656ZM219.499-46.728C225.475-46.728 229.435-42.552 229.435-37.584C229.435-31.824 225.475-28.224 219.499-28.224L209.779-28.224L209.779-46.728Z"></path><path d="M294.293 0L304.373 0L304.373-37.872L304.589-37.872L321.581-11.376L338.861-38.088L339.221-38.088L339.221 0L349.301 0L349.301-55.656L339.005-55.656L321.581-28.224L304.373-55.656L294.293-55.656Z"></path><path d="M422.438 0.720C434.174 0.720 441.374-6.336 441.374-16.128C441.374-23.040 437.558-28.800 428.990-32.256L422.510-34.848C418.190-36.648 416.390-38.448 416.390-41.256C416.390-44.640 419.126-46.944 423.230-46.944C427.622-46.944 431.078-45.432 434.102-42.120L440.078-49.896C435.830-54.000 430.502-56.304 423.230-56.304C413.438-56.304 406.598-48.816 406.598-40.680C406.598-33.120 410.774-28.800 418.838-25.488L425.030-22.968C429.638-21.096 431.222-18.360 431.222-15.264C431.222-11.448 427.910-8.568 422.942-8.568C417.974-8.568 412.718-11.664 409.478-15.480L402.854-7.560C407.966-2.376 415.310 0.720 422.438 0.720Z"></path><path d="M498.456 0.936C501.552 0.936 504.072-1.584 504.072-4.608C504.072-7.776 501.552-10.224 498.456-10.224C495.360-10.224 492.984-7.776 492.984-4.608C492.984-1.584 495.360 0.936 498.456 0.936Z"></path><path d="M559.210 0L569.650 0L569.650-55.656L559.210-55.656Z"></path><path d="M627.667 0L643.075 0C658.627 0 671.731-11.088 671.731-28.008C671.731-43.488 659.059-55.656 643.651-55.656L627.667-55.656ZM644.011-46.152C653.587-46.152 661.291-38.448 661.291-28.008C661.291-17.568 653.875-9.504 644.083-9.504L637.675-9.504L637.675-46.152Z"></path></g></g><g transform="translate(-432.08098088339875 -166.9344734903488) scale(3.2786893447349033)" id="logomark"><g fill="#fff"><path d="M86.1 57.5l5.3-2.3-6-2.6-1.1-.5 1.1-.5 6-2.6-6-2.6-1.1-.5 1.1-.5 6-2.6-6-2.6-.9-.4.9-.4 6-2.6-6-2.6-34.3-14.3-1.1-.4-1.1.5-34.4 14.6-6 2.6 6 2.6.9.4-.9.4-6 2.6 6 2.6 1.1.5-1.1.5-6 2.6 6 2.6 1.1.5-1.1.5-6 2.6 5.3 2.3L5 61.3l9 3.8 34.4 14.7 1.6.7 1.6-.7L86 65.1l9-3.8-8.9-3.8zM50 22.5l34.4 14.7L50 51.9 15.6 37.2 50 22.5zM15.6 43.1l3.4-1.4 29.9 12.8 1.1.5 1.1-.5L81 41.6l3.4 1.4L50 57.8 15.6 43.1zm0 6.1l3.6-1.5 29.7 12.7 1.1.5 1.1-.5 29.7-12.7 3.6 1.5L50 63.8 15.6 49.2zM50 76L15.6 61.3l3.6-1.5 29.7 12.7 1.1.5 1.1-.5 29.7-12.7 3.6 1.5L50 76zm32.6-20l-5.3 2.3L50 69.9 22.7 58.3 17.4 56l-1.8-.8 3.6-1.5 29.7 12.7 1.1.5 1.1-.5 29.7-12.7 3.6 1.5-1.8.8z"></path><path d="M59.3 31.5l-22.6 9.7 2.6 1.1 22.6-9.7zM64.7 33.7L42 43.5l2.7 1.1 22.6-9.7zM70 36l-22.6 9.8 2.6 1.1 22.6-9.8zM48.6 26.9L26 36.7l2.6 1.1L51.2 28zM54 29.2L31.3 39l2.7 1.1 22.6-9.8z"></path></g></g></svg>
