<svg viewBox="0 0 73.77051025653533 50" xmlns="http://www.w3.org/2000/svg" xmlns:xlink="http://www.w3.org/1999/xlink" version="1.1" class="jsx-2263963463 artboard-inner" style="width: 442.623px; height: 300px; max-height: 100%;"><g transform="translate(-4.09836168091863 -15.983618372587204) scale(0.8196723361837259)" id="lockup4-icon"><g fill="#FFFFFF"><path d="M86.1 57.5l5.3-2.3-6-2.6-1.1-.5 1.1-.5 6-2.6-6-2.6-1.1-.5 1.1-.5 6-2.6-6-2.6-.9-.4.9-.4 6-2.6-6-2.6-34.3-14.3-1.1-.4-1.1.5-34.4 14.6-6 2.6 6 2.6.9.4-.9.4-6 2.6 6 2.6 1.1.5-1.1.5-6 2.6 6 2.6 1.1.5-1.1.5-6 2.6 5.3 2.3L5 61.3l9 3.8 34.4 14.7 1.6.7 1.6-.7L86 65.1l9-3.8-8.9-3.8zM50 22.5l34.4 14.7L50 51.9 15.6 37.2 50 22.5zM15.6 43.1l3.4-1.4 29.9 12.8 1.1.5 1.1-.5L81 41.6l3.4 1.4L50 57.8 15.6 43.1zm0 6.1l3.6-1.5 29.7 12.7 1.1.5 1.1-.5 29.7-12.7 3.6 1.5L50 63.8 15.6 49.2zM50 76L15.6 61.3l3.6-1.5 29.7 12.7 1.1.5 1.1-.5 29.7-12.7 3.6 1.5L50 76zm32.6-20l-5.3 2.3L50 69.9 22.7 58.3 17.4 56l-1.8-.8 3.6-1.5 29.7 12.7 1.1.5 1.1-.5 29.7-12.7 3.6 1.5-1.8.8z"></path><path d="M59.3 31.5l-22.6 9.7 2.6 1.1 22.6-9.7zM64.7 33.7L42 43.5l2.7 1.1 22.6-9.7zM70 36l-22.6 9.8 2.6 1.1 22.6-9.8zM48.6 26.9L26 36.7l2.6 1.1L51.2 28zM54 29.2L31.3 39l2.7 1.1 22.6-9.8z"></path></g></g></svg>
